<svg width="500" height="500" viewBox="0 0 500 500" fill="none" xmlns="http://www.w3.org/2000/svg">
<circle cx="250" cy="250" r="250" fill="black"/>
<path d="M139.823 153.73L83 188.506V247.88L139.823 219.889V153.73Z" fill="#F3F3F3"/>
<path d="M139.823 219.889L83 247.88L114.38 301.316L166.962 270.781L139.823 219.889Z" fill="#F3F3F3"/>
<path d="M166.962 270.781L114.38 301.316L166.962 335.243L217.848 301.316L166.962 270.781Z" fill="#F3F3F3"/>
<path d="M217.848 301.316L166.962 335.243H228.025L279.759 301.316H217.848Z" fill="#F3F3F3"/>
<path d="M139.823 153.73L166.962 104.535L110.987 135.918L83 188.506L139.823 153.73Z" fill="#F3F3F3"/>
<path d="M228.025 393.769H166.962L217.848 426H279.759L228.025 393.769Z" fill="#F3F3F3"/>
<path d="M279.759 363.234L228.025 393.769L279.759 426L334.038 393.769L279.759 363.234Z" fill="#F3F3F3"/>
<path d="M279.759 363.234L334.038 393.769L364.57 342.877L311.987 310.646L279.759 363.234Z" fill="#F3F3F3"/>
<path d="M311.987 251.272V310.646L364.57 342.877V281.807L311.987 251.272Z" fill="#F3F3F3"/>
<path d="M311.987 251.272L364.57 281.807L335.734 229.219L283.152 200.381L311.987 251.272Z" fill="#F3F3F3"/>
<path d="M418 188.506L389.165 138.463V200.381L418 249.576V188.506Z" fill="#F3F3F3"/>
<path d="M389.165 200.381V138.463L335.734 104.535V166.453L389.165 200.381Z" fill="#F3F3F3"/>
<path d="M272.975 166.453H335.734V104.535H272.975V166.453Z" fill="#F3F3F3"/>
<path d="M272.975 104.535L220.392 132.525V197.836L272.975 166.453V104.535Z" fill="#F3F3F3"/>
<path d="M220.392 132.525L189.013 185.113V247.88L220.392 197.836V132.525Z" fill="#F3F3F3"/>
<path d="M139.823 153.73L166.962 104.535M139.823 153.73L189.013 185.113M139.823 153.73L83 188.506M139.823 153.73V219.889M166.962 104.535L220.392 132.525M166.962 104.535L110.987 135.918L83 188.506M166.962 104.535L220.392 74M220.392 132.525L189.013 185.113M220.392 132.525L272.975 104.535M220.392 132.525V197.836M189.013 185.113V247.88M83 188.506V247.88M220.392 74L272.975 104.535M220.392 74H283.152L335.734 104.535M272.975 104.535V166.453M272.975 104.535H335.734M220.392 197.836L189.013 247.88M220.392 197.836L283.152 200.381M220.392 197.836L272.975 166.453M189.013 247.88L139.823 219.889M189.013 247.88L217.848 301.316M139.823 219.889L83 247.88M139.823 219.889L166.962 270.781M83 247.88L114.38 301.316M83 247.88V312.342L114.38 363.234M114.38 301.316L166.962 270.781M114.38 301.316V363.234M114.38 301.316L166.962 335.243M166.962 270.781L217.848 301.316M217.848 301.316L166.962 335.243M217.848 301.316H279.759M114.38 363.234L166.962 393.769M166.962 335.243V393.769M166.962 335.243H228.025M166.962 393.769H228.025M166.962 393.769L217.848 426H279.759M228.025 335.243L279.759 301.316M228.025 335.243V393.769M279.759 301.316V363.234M279.759 301.316L311.987 251.272M228.025 393.769L279.759 363.234M228.025 393.769L279.759 426M279.759 363.234L334.038 393.769M279.759 363.234L311.987 310.646M279.759 426L334.038 393.769M334.038 393.769L364.57 342.877M334.038 393.769L387.468 363.234L418 310.646M311.987 310.646V251.272M311.987 310.646L364.57 342.877M311.987 251.272L364.57 281.807M311.987 251.272L283.152 200.381M364.57 281.807V342.877M364.57 281.807L418 249.576M364.57 281.807L335.734 229.219M364.57 342.877L418 310.646M418 310.646V249.576M389.165 138.463L418 188.506V249.576M389.165 138.463V200.381M389.165 138.463L335.734 104.535M389.165 200.381L418 249.576M389.165 200.381L335.734 229.219M389.165 200.381L335.734 166.453M335.734 229.219L283.152 200.381M335.734 166.453L283.152 200.381M335.734 166.453H272.975M335.734 166.453V104.535" stroke="black" stroke-width="3"/>
<path d="M114.38 301.316L83 247.88V312.342L114.38 363.234V301.316Z" fill="white"/>
<path d="M114.38 301.316V363.234L166.962 393.769V335.243L114.38 301.316Z" fill="white"/>
<path d="M166.962 335.243V393.769H228.025V335.243H166.962Z" fill="white"/>
<path d="M279.759 301.316L228.025 335.243V393.769L279.759 363.234V301.316Z" fill="white"/>
<path d="M279.759 301.316V363.234L311.987 310.646V251.272L279.759 301.316Z" fill="white"/>
<path d="M364.57 342.877L334.038 393.769L387.468 363.234L418 310.646L364.57 342.877Z" fill="white"/>
<path d="M364.57 281.807V342.877L418 310.646V249.576L364.57 281.807Z" fill="white"/>
<path d="M418 249.576L389.165 200.381L335.734 229.219L364.57 281.807L418 249.576Z" fill="white"/>
<path d="M335.734 229.219L389.165 200.381L335.734 166.453L283.152 200.381L335.734 229.219Z" fill="white"/>
<path d="M283.152 200.381L335.734 166.453H272.975L220.392 197.836L283.152 200.381Z" fill="white"/>
<path d="M220.392 74L272.975 104.535H335.734L283.152 74H220.392Z" fill="white"/>
<path d="M166.962 104.535L220.392 132.525L272.975 104.535L220.392 74L166.962 104.535Z" fill="white"/>
<path d="M166.962 104.535L139.823 153.73L189.013 185.113L220.392 132.525L166.962 104.535Z" fill="white"/>
<path d="M189.013 185.113L139.823 153.73V219.889L189.013 247.88V185.113Z" fill="white"/>
<path d="M189.013 247.88L139.823 219.889L166.962 270.781L217.848 301.316L189.013 247.88Z" fill="white"/>
<path d="M139.823 153.73L166.962 104.535M139.823 153.73L189.013 185.113M139.823 153.73L83 188.506M139.823 153.73V219.889M166.962 104.535L220.392 132.525M166.962 104.535L110.987 135.918L83 188.506M166.962 104.535L220.392 74M220.392 132.525L189.013 185.113M220.392 132.525L272.975 104.535M220.392 132.525V197.836M189.013 185.113V247.88M83 188.506V247.88M220.392 74L272.975 104.535M220.392 74H283.152L335.734 104.535M272.975 104.535V166.453M272.975 104.535H335.734M220.392 197.836L189.013 247.88M220.392 197.836L283.152 200.381M220.392 197.836L272.975 166.453M189.013 247.88L139.823 219.889M189.013 247.88L217.848 301.316M139.823 219.889L83 247.88M139.823 219.889L166.962 270.781M83 247.88L114.38 301.316M83 247.88V312.342L114.38 363.234M114.38 301.316L166.962 270.781M114.38 301.316V363.234M114.38 301.316L166.962 335.243M166.962 270.781L217.848 301.316M217.848 301.316L166.962 335.243M217.848 301.316H279.759M114.38 363.234L166.962 393.769M166.962 335.243V393.769M166.962 335.243H228.025M166.962 393.769H228.025M166.962 393.769L217.848 426H279.759M228.025 335.243L279.759 301.316M228.025 335.243V393.769M279.759 301.316V363.234M279.759 301.316L311.987 251.272M228.025 393.769L279.759 363.234M228.025 393.769L279.759 426M279.759 363.234L334.038 393.769M279.759 363.234L311.987 310.646M279.759 426L334.038 393.769M334.038 393.769L364.57 342.877M334.038 393.769L387.468 363.234L418 310.646M311.987 310.646V251.272M311.987 310.646L364.57 342.877M311.987 251.272L364.57 281.807M311.987 251.272L283.152 200.381M364.57 281.807V342.877M364.57 281.807L418 249.576M364.57 281.807L335.734 229.219M364.57 342.877L418 310.646M418 310.646V249.576M389.165 138.463L418 188.506V249.576M389.165 138.463V200.381M389.165 138.463L335.734 104.535M389.165 200.381L418 249.576M389.165 200.381L335.734 229.219M389.165 200.381L335.734 166.453M335.734 229.219L283.152 200.381M335.734 166.453L283.152 200.381M335.734 166.453H272.975M335.734 166.453V104.535" stroke="black" stroke-width="3"/>
</svg>
